<svg role="img" viewBox="0 0 256 242" xmlns="http://www.w3.org/2000/svg"><title>Azure / Entra ID</title><path d="M85.343.003h75.753L82.457 233a12.08 12.08 0 0 1-11.442 8.216H12.06A12.06 12.06 0 0 1 .633 225.303L73.898 8.219A12.08 12.08 0 0 1 85.343 0z"/><path d="M195.423 156.282H75.297a5.56 5.56 0 0 0-3.796 9.627l77.19 72.047a12.14 12.14 0 0 0 8.28 3.26h68.02z"/><path d="M85.343.003a11.98 11.98 0 0 0-11.471 8.376L.723 225.105a12.045 12.045 0 0 0 11.37 16.112h60.475a12.93 12.93 0 0 0 9.921-8.437l14.588-42.991l52.105 48.6a12.33 12.33 0 0 0 7.757 2.828h67.766l-29.721-84.935l-86.643.02L161.37.003z"/><path d="M182.098 8.207A12.06 12.06 0 0 0 170.67.003H86.245c5.175 0 9.773 3.301 11.428 8.204L170.94 225.3a12.062 12.062 0 0 1-11.428 15.92h84.429a12.062 12.062 0 0 0 11.425-15.92z"/></svg>