<svg xmlns="http://www.w3.org/2000/svg" width="900" height="900" viewBox="0 0 900 900">
  <g stroke="#8a8f8c" stroke-opacity="0.26" stroke-width="1" fill="none">
    <path d="M80 120L260 70 430 180 610 110 800 200"/>
    <path d="M60 340L230 290 400 400 590 330 820 420"/>
    <path d="M90 570L250 510 420 620 620 550 830 640"/>
    <path d="M70 790L240 730 410 840 600 770 810 860"/>
    <path d="M80 120L60 340 90 570 70 790"/>
    <path d="M260 70L230 290 250 510 240 730"/>
    <path d="M430 180L400 400 420 620 410 840"/>
    <path d="M610 110L590 330 620 550 600 770"/>
    <path d="M800 200L820 420 830 640 810 860"/>
  </g>
  <g fill="#8a8f8c" fill-opacity="0.38">
    <circle cx="80" cy="120" r="3.2"/><circle cx="260" cy="70" r="3.2"/><circle cx="430" cy="180" r="3.2"/>
    <circle cx="610" cy="110" r="3.2"/><circle cx="800" cy="200" r="3.2"/>
    <circle cx="60" cy="340" r="3.2"/><circle cx="230" cy="290" r="3.2"/><circle cx="400" cy="400" r="3.2"/>
    <circle cx="590" cy="330" r="3.2"/><circle cx="820" cy="420" r="3.2"/>
    <circle cx="90" cy="570" r="3.2"/><circle cx="250" cy="510" r="3.2"/><circle cx="420" cy="620" r="3.2"/>
    <circle cx="620" cy="550" r="3.2"/><circle cx="830" cy="640" r="3.2"/>
    <circle cx="70" cy="790" r="3.2"/><circle cx="240" cy="730" r="3.2"/><circle cx="410" cy="840" r="3.2"/>
    <circle cx="600" cy="770" r="3.2"/><circle cx="810" cy="860" r="3.2"/>
  </g>
</svg>
